<?xml version="1.0" standalone="no"?>
<!DOCTYPE svg PUBLIC "-//W3C//DTD SVG 20010904//EN"
 "http://www.w3.org/TR/2001/REC-SVG-20010904/DTD/svg10.dtd">
<svg version="1.0" xmlns="http://www.w3.org/2000/svg"
 width="430.000000pt" height="430.000000pt" viewBox="0 0 430.000000 430.000000"
 preserveAspectRatio="xMidYMid meet">
<metadata>
Created by potrace 1.14, written by Peter Selinger 2001-2017
</metadata>
<g transform="translate(0.000000,430.000000) scale(0.100000,-0.100000)"
fill="#000000" stroke="none">
<path d="M419 4274 c-127 -40 -245 -124 -311 -221 -47 -69 -65 -108 -87 -193
-19 -73 -19 -121 -19 -1715 1 -1296 3 -1649 13 -1682 7 -24 10 -43 7 -43 -4 0
-1 -4 6 -9 7 -4 14 -18 15 -29 1 -12 4 -22 7 -22 3 0 11 -15 18 -34 7 -18 20
-43 30 -54 9 -12 28 -35 42 -53 29 -38 92 -99 102 -99 4 0 13 -6 21 -14 7 -8
40 -28 73 -44 128 -65 4 -61 1839 -59 l1670 2 70 34 c87 41 175 98 175 113 0
6 3 9 6 5 11 -10 101 102 137 171 68 130 64 9 64 1827 l1 1650 -23 68 c-13 37
-21 67 -19 67 3 0 -2 7 -10 16 -9 8 -16 22 -16 30 0 8 -4 14 -10 14 -5 0 -10
7 -10 15 0 8 -5 15 -11 15 -5 0 -8 4 -4 9 6 10 -151 171 -167 171 -6 0 -22 9
-37 20 -15 10 -61 30 -102 44 l-74 24 -1661 0 -1661 -1 -74 -23z"/>
</g>
</svg>
